<svg xmlns="http://www.w3.org/2000/svg" viewBox="0 0 500 500"><g id="freepik--background-complete--inject-66"><rect y="382.4" width="500" height="0.25" style="fill:#ebebeb"></rect><rect x="52.46" y="391.92" width="33.12" height="0.25" style="fill:#ebebeb"></rect><rect x="171.14" y="392.05" width="53.86" height="0.25" style="fill:#ebebeb"></rect><rect x="105.77" y="397.08" width="19.19" height="0.25" style="fill:#ebebeb"></rect><rect x="426.77" y="396.96" width="19.23" height="0.25" style="fill:#ebebeb"></rect><rect x="387.57" y="396.96" width="30.29" height="0.25" style="fill:#ebebeb"></rect><rect x="328.33" y="395.31" width="42.56" height="0.25" style="fill:#ebebeb"></rect><path d="M237,337.8H43.91a5.71,5.71,0,0,1-5.7-5.71V60.66A5.71,5.71,0,0,1,43.91,55H237a5.71,5.71,0,0,1,5.71,5.71V332.09A5.71,5.71,0,0,1,237,337.8ZM43.91,55.2a5.46,5.46,0,0,0-5.45,5.46V332.09a5.46,5.46,0,0,0,5.45,5.46H237a5.47,5.47,0,0,0,5.46-5.46V60.66A5.47,5.47,0,0,0,237,55.2Z" style="fill:#ebebeb"></path><path d="M453.31,337.8H260.21a5.72,5.72,0,0,1-5.71-5.71V60.66A5.72,5.72,0,0,1,260.21,55h193.1A5.71,5.71,0,0,1,459,60.66V332.09A5.71,5.71,0,0,1,453.31,337.8ZM260.21,55.2a5.47,5.47,0,0,0-5.46,5.46V332.09a5.47,5.47,0,0,0,5.46,5.46h193.1a5.47,5.47,0,0,0,5.46-5.46V60.66a5.47,5.47,0,0,0-5.46-5.46Z" style="fill:#ebebeb"></path><rect x="302.21" y="241.5" width="28.32" height="140.9" transform="translate(632.75 623.9) rotate(180)" style="fill:#e6e6e6"></rect><polygon points="307.59 382.4 302.21 382.4 302.21 367.1 313.23 367.1 307.59 382.4" style="fill:#f0f0f0"></polygon><rect x="408.06" y="241.5" width="28.32" height="140.9" transform="translate(844.44 623.9) rotate(180)" style="fill:#e6e6e6"></rect><rect x="302.21" y="241.5" width="110.54" height="131.51" transform="translate(714.97 614.51) rotate(180)" style="fill:#f0f0f0"></rect><rect x="318.25" y="316.45" width="25.57" height="49.29" transform="translate(-10.06 672.13) rotate(-90)" style="fill:#e6e6e6"></rect><rect x="371.15" y="316.45" width="25.57" height="49.29" transform="translate(42.84 725.03) rotate(-90)" style="fill:#e6e6e6"></rect><path d="M379.06,332.59h9.75a15.4,15.4,0,0,0,11.2-4.82H367.86A15.4,15.4,0,0,0,379.06,332.59Z" style="fill:#f0f0f0"></path><path d="M325.66,332.59h9.75a15.4,15.4,0,0,0,11.2-4.82H314.46A15.4,15.4,0,0,0,325.66,332.59Z" style="fill:#f0f0f0"></path><rect x="318.25" y="276.7" width="25.57" height="49.29" transform="translate(29.68 632.38) rotate(-90)" style="fill:#e6e6e6"></rect><rect x="371.15" y="276.7" width="25.57" height="49.29" transform="translate(82.59 685.29) rotate(-90)" style="fill:#e6e6e6"></rect><path d="M379.06,292.84h9.75A15.43,15.43,0,0,0,400,288H367.86A15.43,15.43,0,0,0,379.06,292.84Z" style="fill:#f0f0f0"></path><path d="M325.66,292.84h9.75a15.43,15.43,0,0,0,11.2-4.81H314.46A15.43,15.43,0,0,0,325.66,292.84Z" style="fill:#f0f0f0"></path><rect x="318.25" y="236.96" width="25.57" height="49.29" transform="translate(69.43 592.64) rotate(-90)" style="fill:#e6e6e6"></rect><rect x="371.15" y="236.96" width="25.57" height="49.29" transform="translate(122.33 645.54) rotate(-90)" style="fill:#e6e6e6"></rect><path d="M379.06,253.1h9.75a15.4,15.4,0,0,0,11.2-4.82H367.86A15.4,15.4,0,0,0,379.06,253.1Z" style="fill:#f0f0f0"></path><path d="M325.66,253.1h9.75a15.4,15.4,0,0,0,11.2-4.82H314.46A15.4,15.4,0,0,0,325.66,253.1Z" style="fill:#f0f0f0"></path><polygon points="407.38 382.4 412.76 382.4 412.76 367.1 401.74 367.1 407.38 382.4" style="fill:#f0f0f0"></polygon><polygon points="412.04 144.77 416.37 156.61 412.04 156.61 385.47 144.77 412.04 144.77" style="fill:#f5f5f5"></polygon><polygon points="416.37 144.77 416.37 156.61 389.81 144.77 416.37 144.77" style="fill:#e6e6e6"></polygon><polygon points="307.87 144.77 312.2 156.61 307.87 156.61 281.31 144.77 307.87 144.77" style="fill:#f5f5f5"></polygon><polygon points="312.2 144.77 312.2 156.61 285.64 144.77 312.2 144.77" style="fill:#e6e6e6"></polygon><rect x="406.98" y="136.31" width="28.89" height="9.01" style="fill:#e6e6e6"></rect><rect x="263.35" y="136.31" width="143.63" height="9.01" transform="translate(670.33 281.64) rotate(180)" style="fill:#f5f5f5"></rect><path d="M377.81,105s.29,31.32,11.1,31.32S400,105,400,105Z" style="fill:#f0f0f0"></path><path d="M310.78,126.1s.76,10.21,29.84,10.21,29.84-10.21,29.84-10.21Z" style="fill:#f0f0f0"></path><path d="M224.36,382.4h1.93l5.53-27.25,1-4.78,6-29.7H262l12.53,61.73h1.94l-12.77-62.86a.94.94,0,0,0-.93-.76H238.05a.93.93,0,0,0-.92.76l-5.3,26.08-1,4.77Z" style="fill:#f0f0f0"></path><path d="M187.23,382.4h1.93l12.54-61.73h23.12l6,29.72,1,4.76,5.54,27.25h1.93l-6.5-32-1-4.75-5.3-26.08a1,1,0,0,0-.93-.76H200.93a.94.94,0,0,0-.93.76Z" style="fill:#f0f0f0"></path><path d="M265.46,311.58H198.19a5.83,5.83,0,0,0-5.82,5.82v.2a2.13,2.13,0,0,0,2.13,2.13h74.65a2.13,2.13,0,0,0,2.13-2.13v-.2A5.83,5.83,0,0,0,265.46,311.58Z" style="fill:#f0f0f0"></path><path d="M156.85,382.4h1.93l5.53-27.25,1-4.78,6-29.7h23.12L207,382.4h1.94l-12.77-62.86a.94.94,0,0,0-.93-.76H170.54a.93.93,0,0,0-.92.76l-5.3,26.08-1,4.77Z" style="fill:#f0f0f0"></path><path d="M119.72,382.4h1.94l12.53-61.73h23.13l6,29.72,1,4.76,5.54,27.25h1.93l-6.5-32-1-4.75L159,319.54a1,1,0,0,0-.93-.76H133.42a.94.94,0,0,0-.93.76Z" style="fill:#f0f0f0"></path><path d="M198,311.58H130.68a5.83,5.83,0,0,0-5.82,5.82v.2a2.13,2.13,0,0,0,2.13,2.13h74.66a2.12,2.12,0,0,0,2.12-2.13v-.2A5.83,5.83,0,0,0,198,311.58Z" style="fill:#f0f0f0"></path><rect x="84.33" y="77.76" width="96.65" height="154.83" transform="translate(265.31 310.36) rotate(180)" style="fill:#e6e6e6"></rect><rect x="78.02" y="77.76" width="100.01" height="154.83" transform="translate(256.05 310.36) rotate(180)" style="fill:#f0f0f0"></rect><rect x="84.33" y="232.6" width="96.65" height="11.74" transform="translate(265.31 476.93) rotate(180)" style="fill:#e6e6e6"></rect><rect x="67.49" y="232.6" width="100.01" height="11.74" transform="translate(235 476.93) rotate(180)" style="fill:#f0f0f0"></rect><rect x="59.45" y="114.02" width="137.15" height="82.33" transform="translate(283.2 27.16) rotate(90)" style="fill:#fafafa"></rect><polygon points="169.89 223.75 140.93 86.61 116.43 86.61 145.39 223.75 169.89 223.75" style="fill:#fff"></polygon><path d="M163.22,207.37a.63.63,0,0,0,.63-.63V92.36a.63.63,0,1,0-1.26,0V206.74A.63.63,0,0,0,163.22,207.37Z" style="fill:#f0f0f0"></path><polygon points="140.13 223.75 111.17 86.61 101.62 86.61 130.57 223.75 140.13 223.75" style="fill:#fff"></polygon><rect x="18.85" y="154.62" width="137.15" height="1.12" transform="translate(242.6 67.76) rotate(90)" style="fill:#e6e6e6"></rect><polygon points="75.92 93.4 172.57 93.4 173.39 90.04 76.74 90.04 75.92 93.4" style="fill:#f0f0f0;opacity:0.6000000000000001"></polygon><polygon points="75.92 101.21 172.57 101.21 173.39 97.86 76.74 97.86 75.92 101.21" style="fill:#f0f0f0;opacity:0.6000000000000001"></polygon><polygon points="75.92 109.03 172.57 109.03 173.39 105.67 76.74 105.67 75.92 109.03" style="fill:#f0f0f0;opacity:0.6000000000000001"></polygon><polygon points="75.92 116.84 172.57 116.84 173.39 113.49 76.74 113.49 75.92 116.84" style="fill:#f0f0f0;opacity:0.6000000000000001"></polygon><polygon points="75.92 124.66 172.57 124.66 173.39 121.31 76.74 121.31 75.92 124.66" style="fill:#f0f0f0;opacity:0.6000000000000001"></polygon><polygon points="75.92 132.48 172.57 132.48 173.39 129.12 76.74 129.12 75.92 132.48" style="fill:#f0f0f0;opacity:0.6000000000000001"></polygon></g><g id="freepik--Shadow--inject-66"><ellipse id="freepik--path--inject-66" cx="250" cy="416.24" rx="193.89" ry="11.32" style="fill:#f5f5f5"></ellipse></g><g id="freepik--Briefcases--inject-66"><rect x="180.47" y="262.73" width="64.21" height="28.6" rx="1.56" style="fill:#407BFF"></rect><rect x="180.47" y="262.73" width="64.21" height="28.6" rx="1.56" style="fill:#fff;opacity:0.6000000000000001"></rect><path d="M243.11,262.73H182a1.56,1.56,0,0,0-1.56,1.56v8.17l31.8,6.26a1.47,1.47,0,0,0,.59,0l31.81-6.26v-8.17A1.56,1.56,0,0,0,243.11,262.73Z" style="opacity:0.1"></path><path d="M244.45,252.27H225.79v-3.13a4.89,4.89,0,0,0-4.88-4.88H204.24a4.89,4.89,0,0,0-4.88,4.88v3.13H180.71a1.54,1.54,0,0,0-1.54,1.54v15.41a1.55,1.55,0,0,0,1.24,1.51L212.28,277a1.94,1.94,0,0,0,.59,0l31.87-6.27a1.56,1.56,0,0,0,1.25-1.51V253.81A1.54,1.54,0,0,0,244.45,252.27Zm-41.38-3.13a1.19,1.19,0,0,1,1.17-1.18h16.67a1.19,1.19,0,0,1,1.17,1.18v3.13h-19Z" style="fill:#407BFF"></path><path d="M244.45,252.27H225.79v-3.13a4.89,4.89,0,0,0-4.88-4.88H204.24a4.89,4.89,0,0,0-4.88,4.88v3.13H180.71a1.54,1.54,0,0,0-1.54,1.54v15.41a1.55,1.55,0,0,0,1.24,1.51L212.28,277a1.94,1.94,0,0,0,.59,0l31.87-6.27a1.56,1.56,0,0,0,1.25-1.51V253.81A1.54,1.54,0,0,0,244.45,252.27Zm-41.38-3.13a1.19,1.19,0,0,1,1.17-1.18h16.67a1.19,1.19,0,0,1,1.17,1.18v3.13h-19Z" style="fill:#fff;opacity:0.6000000000000001"></path><rect x="207.81" y="272.79" width="9.54" height="7.12" rx="1.48" style="fill:#407BFF"></rect><rect x="207.81" y="272.79" width="9.54" height="7.12" rx="1.48" style="fill:#fff;opacity:0.30000000000000004"></rect><rect x="180.47" y="78.77" width="64.21" height="28.6" rx="1.56" style="fill:#407BFF"></rect><rect x="180.47" y="78.77" width="64.21" height="28.6" rx="1.56" style="fill:#fff;opacity:0.6000000000000001"></rect><path d="M243.11,78.77H182a1.56,1.56,0,0,0-1.56,1.56V88.5l31.8,6.26a1.47,1.47,0,0,0,.59,0l31.81-6.26V80.33A1.56,1.56,0,0,0,243.11,78.77Z" style="opacity:0.1"></path><path d="M244.45,68.31H225.79V65.18a4.89,4.89,0,0,0-4.88-4.88H204.24a4.89,4.89,0,0,0-4.88,4.88v3.13H180.71a1.54,1.54,0,0,0-1.54,1.54V85.26a1.54,1.54,0,0,0,1.24,1.51L212.28,93a1.47,1.47,0,0,0,.59,0l31.87-6.27A1.55,1.55,0,0,0,246,85.26V69.85A1.54,1.54,0,0,0,244.45,68.31Zm-41.38-3.13A1.18,1.18,0,0,1,204.24,64h16.67a1.18,1.18,0,0,1,1.17,1.17v3.13h-19Z" style="fill:#407BFF"></path><path d="M244.45,68.31H225.79V65.18a4.89,4.89,0,0,0-4.88-4.88H204.24a4.89,4.89,0,0,0-4.88,4.88v3.13H180.71a1.54,1.54,0,0,0-1.54,1.54V85.26a1.54,1.54,0,0,0,1.24,1.51L212.28,93a1.47,1.47,0,0,0,.59,0l31.87-6.27A1.55,1.55,0,0,0,246,85.26V69.85A1.54,1.54,0,0,0,244.45,68.31Zm-41.38-3.13A1.18,1.18,0,0,1,204.24,64h16.67a1.18,1.18,0,0,1,1.17,1.17v3.13h-19Z" style="fill:#fff;opacity:0.6000000000000001"></path><rect x="207.81" y="88.84" width="9.54" height="7.12" rx="1.48" style="fill:#407BFF"></rect><rect x="207.81" y="88.84" width="9.54" height="7.12" rx="1.48" style="fill:#fff;opacity:0.30000000000000004"></rect><rect x="85.31" y="262.73" width="64.21" height="28.6" rx="1.56" style="fill:#407BFF"></rect><rect x="85.31" y="262.73" width="64.21" height="28.6" rx="1.56" style="fill:#fff;opacity:0.6000000000000001"></rect><path d="M148,262.73H86.87a1.56,1.56,0,0,0-1.56,1.56v8.17l31.8,6.26a1.52,1.52,0,0,0,.6,0l31.81-6.26v-8.17A1.56,1.56,0,0,0,148,262.73Z" style="opacity:0.1"></path><path d="M149.28,252.27H130.62v-3.13a4.89,4.89,0,0,0-4.88-4.88H109.08a4.89,4.89,0,0,0-4.88,4.88v3.13H85.54A1.54,1.54,0,0,0,84,253.81v15.41a1.55,1.55,0,0,0,1.24,1.51L117.11,277a2,2,0,0,0,.6,0l31.87-6.27a1.55,1.55,0,0,0,1.24-1.51V253.81A1.54,1.54,0,0,0,149.28,252.27Zm-41.38-3.13a1.2,1.2,0,0,1,1.18-1.18h16.66a1.2,1.2,0,0,1,1.18,1.18v3.13h-19Z" style="fill:#407BFF"></path><path d="M149.28,252.27H130.62v-3.13a4.89,4.89,0,0,0-4.88-4.88H109.08a4.89,4.89,0,0,0-4.88,4.88v3.13H85.54A1.54,1.54,0,0,0,84,253.81v15.41a1.55,1.55,0,0,0,1.24,1.51L117.11,277a2,2,0,0,0,.6,0l31.87-6.27a1.55,1.55,0,0,0,1.24-1.51V253.81A1.54,1.54,0,0,0,149.28,252.27Zm-41.38-3.13a1.2,1.2,0,0,1,1.18-1.18h16.66a1.2,1.2,0,0,1,1.18,1.18v3.13h-19Z" style="fill:#fff;opacity:0.6000000000000001"></path><rect x="112.64" y="272.79" width="9.54" height="7.12" rx="1.48" style="fill:#407BFF"></rect><rect x="112.64" y="272.79" width="9.54" height="7.12" rx="1.48" style="fill:#fff;opacity:0.30000000000000004"></rect><rect x="85.31" y="78.77" width="64.21" height="28.6" rx="1.56" style="fill:#407BFF"></rect><rect x="85.31" y="78.77" width="64.21" height="28.6" rx="1.56" style="fill:#fff;opacity:0.6000000000000001"></rect><path d="M148,78.77H86.87a1.56,1.56,0,0,0-1.56,1.56V88.5l31.8,6.26a1.51,1.51,0,0,0,.6,0l31.81-6.26V80.33A1.56,1.56,0,0,0,148,78.77Z" style="opacity:0.1"></path><path d="M149.28,68.31H130.62V65.18a4.89,4.89,0,0,0-4.88-4.88H109.08a4.89,4.89,0,0,0-4.88,4.88v3.13H85.54A1.54,1.54,0,0,0,84,69.85V85.26a1.54,1.54,0,0,0,1.24,1.51L117.11,93a1.51,1.51,0,0,0,.6,0l31.87-6.27a1.54,1.54,0,0,0,1.24-1.51V69.85A1.54,1.54,0,0,0,149.28,68.31ZM107.9,65.18A1.19,1.19,0,0,1,109.08,64h16.66a1.19,1.19,0,0,1,1.18,1.17v3.13h-19Z" style="fill:#407BFF"></path><path d="M149.28,68.31H130.62V65.18a4.89,4.89,0,0,0-4.88-4.88H109.08a4.89,4.89,0,0,0-4.88,4.88v3.13H85.54A1.54,1.54,0,0,0,84,69.85V85.26a1.54,1.54,0,0,0,1.24,1.51L117.11,93a1.51,1.51,0,0,0,.6,0l31.87-6.27a1.54,1.54,0,0,0,1.24-1.51V69.85A1.54,1.54,0,0,0,149.28,68.31ZM107.9,65.18A1.19,1.19,0,0,1,109.08,64h16.66a1.19,1.19,0,0,1,1.18,1.17v3.13h-19Z" style="fill:#fff;opacity:0.6000000000000001"></path><rect x="112.64" y="88.84" width="9.54" height="7.12" rx="1.48" style="fill:#407BFF"></rect><rect x="112.64" y="88.84" width="9.54" height="7.12" rx="1.48" style="fill:#fff;opacity:0.30000000000000004"></rect><path d="M140,199.35H86.87a1.57,1.57,0,0,1-1.57-1.57V172.31a1.55,1.55,0,0,1,.13-.61,2.15,2.15,0,0,1,.14-.26,1.1,1.1,0,0,1,.2-.23,1.56,1.56,0,0,1,1.1-.46h50.29a65.58,65.58,0,0,0-.41,10.52c0,.57,0,1.14.09,1.7.07,1.05.15,2.11.27,3.16A67,67,0,0,0,140,199.35Z" style="fill:#407BFF"></path><path d="M140,199.35H86.87a1.57,1.57,0,0,1-1.57-1.57V172.31a1.55,1.55,0,0,1,.13-.61,2.15,2.15,0,0,1,.14-.26,1.1,1.1,0,0,1,.2-.23,1.56,1.56,0,0,1,1.1-.46h50.29a65.58,65.58,0,0,0-.41,10.52c0,.57,0,1.14.09,1.7.07,1.05.15,2.11.27,3.16A67,67,0,0,0,140,199.35Z" style="fill:#fff;opacity:0.6000000000000001"></path><path d="M137.16,170.75a65.58,65.58,0,0,0-.41,10.52c0,.57,0,1.14.09,1.7l-14.66,2.88-4.48.88a1.18,1.18,0,0,1-.59,0l-4.47-.87-27.33-5.38V172.3a1.69,1.69,0,0,1,.12-.6,2.15,2.15,0,0,1,.14-.26,1.1,1.1,0,0,1,.2-.23,1.56,1.56,0,0,1,1.1-.46Z" style="opacity:0.1"></path><path d="M139.25,160.29h-8.62v-3.13a4.9,4.9,0,0,0-4.89-4.88H109.08a4.88,4.88,0,0,0-4.88,4.88v3.13H85.54A1.54,1.54,0,0,0,84,161.83v15.4a1.55,1.55,0,0,0,1.25,1.52h.06l27.33,5.39,4.47.87a1.47,1.47,0,0,0,.59,0l4.48-.88,14.57-2.87a65.58,65.58,0,0,1,.41-10.52A66.34,66.34,0,0,1,139.25,160.29Zm-31.35-3.13a1.19,1.19,0,0,1,1.18-1.17h16.66a1.18,1.18,0,0,1,1.17,1.17v3.13h-19Z" style="fill:#407BFF"></path><path d="M139.25,160.29h-8.62v-3.13a4.9,4.9,0,0,0-4.89-4.88H109.08a4.88,4.88,0,0,0-4.88,4.88v3.13H85.54A1.54,1.54,0,0,0,84,161.83v15.4a1.55,1.55,0,0,0,1.25,1.52h.06l27.33,5.39,4.47.87a1.47,1.47,0,0,0,.59,0l4.48-.88,14.57-2.87a65.58,65.58,0,0,1,.41-10.52A66.34,66.34,0,0,1,139.25,160.29Zm-31.35-3.13a1.19,1.19,0,0,1,1.18-1.17h16.66a1.18,1.18,0,0,1,1.17,1.17v3.13h-19Z" style="fill:#fff;opacity:0.6000000000000001"></path><rect x="112.64" y="180.81" width="9.54" height="7.12" rx="1.48" style="fill:#407BFF"></rect><rect x="112.64" y="180.81" width="9.54" height="7.12" rx="1.48" style="fill:#fff;opacity:0.30000000000000004"></rect><rect x="275.64" y="262.73" width="64.21" height="28.6" rx="1.56" transform="translate(615.48 554.05) rotate(180)" style="fill:#407BFF"></rect><rect x="275.64" y="262.73" width="64.21" height="28.6" rx="1.56" transform="translate(615.48 554.05) rotate(180)" style="fill:#fff;opacity:0.6000000000000001"></rect><path d="M277.2,262.73h61.08a1.56,1.56,0,0,1,1.56,1.56v8.17L308,278.72a1.47,1.47,0,0,1-.59,0l-31.81-6.26v-8.17A1.56,1.56,0,0,1,277.2,262.73Z" style="opacity:0.1"></path><path d="M275.87,252.27h18.66v-3.13a4.89,4.89,0,0,1,4.88-4.88h16.67a4.89,4.89,0,0,1,4.88,4.88v3.13h18.65a1.54,1.54,0,0,1,1.54,1.54v15.41a1.55,1.55,0,0,1-1.24,1.51L308,277a2,2,0,0,1-.6,0l-31.87-6.27a1.55,1.55,0,0,1-1.24-1.51V253.81A1.54,1.54,0,0,1,275.87,252.27Zm41.38-3.13a1.19,1.19,0,0,0-1.17-1.18H299.41a1.2,1.2,0,0,0-1.18,1.18v3.13h19Z" style="fill:#407BFF"></path><path d="M275.87,252.27h18.66v-3.13a4.89,4.89,0,0,1,4.88-4.88h16.67a4.89,4.89,0,0,1,4.88,4.88v3.13h18.65a1.54,1.54,0,0,1,1.54,1.54v15.41a1.55,1.55,0,0,1-1.24,1.51L308,277a2,2,0,0,1-.6,0l-31.87-6.27a1.55,1.55,0,0,1-1.24-1.51V253.81A1.54,1.54,0,0,1,275.87,252.27Zm41.38-3.13a1.19,1.19,0,0,0-1.17-1.18H299.41a1.2,1.2,0,0,0-1.18,1.18v3.13h19Z" style="fill:#fff;opacity:0.6000000000000001"></path><rect x="302.97" y="272.79" width="9.54" height="7.12" rx="1.48" transform="translate(615.48 552.7) rotate(180)" style="fill:#407BFF"></rect><rect x="302.97" y="272.79" width="9.54" height="7.12" rx="1.48" transform="translate(615.48 552.7) rotate(180)" style="fill:#fff;opacity:0.30000000000000004"></rect><rect x="275.64" y="78.77" width="64.21" height="28.6" rx="1.56" transform="translate(615.48 186.13) rotate(180)" style="fill:#407BFF"></rect><rect x="275.64" y="78.77" width="64.21" height="28.6" rx="1.56" transform="translate(615.48 186.13) rotate(180)" style="fill:#fff;opacity:0.6000000000000001"></rect><path d="M277.2,78.77h61.08a1.56,1.56,0,0,1,1.56,1.56V88.5L308,94.76a1.47,1.47,0,0,1-.59,0L275.64,88.5V80.33A1.56,1.56,0,0,1,277.2,78.77Z" style="opacity:0.1"></path><path d="M275.87,68.31h18.66V65.18a4.89,4.89,0,0,1,4.88-4.88h16.67A4.89,4.89,0,0,1,321,65.18v3.13h18.65a1.54,1.54,0,0,1,1.54,1.54V85.26a1.54,1.54,0,0,1-1.24,1.51L308,93a1.51,1.51,0,0,1-.6,0l-31.87-6.27a1.54,1.54,0,0,1-1.24-1.51V69.85A1.54,1.54,0,0,1,275.87,68.31Zm41.38-3.13A1.18,1.18,0,0,0,316.08,64H299.41a1.19,1.19,0,0,0-1.18,1.17v3.13h19Z" style="fill:#407BFF"></path><path d="M275.87,68.31h18.66V65.18a4.89,4.89,0,0,1,4.88-4.88h16.67A4.89,4.89,0,0,1,321,65.18v3.13h18.65a1.54,1.54,0,0,1,1.54,1.54V85.26a1.54,1.54,0,0,1-1.24,1.51L308,93a1.51,1.51,0,0,1-.6,0l-31.87-6.27a1.54,1.54,0,0,1-1.24-1.51V69.85A1.54,1.54,0,0,1,275.87,68.31Zm41.38-3.13A1.18,1.18,0,0,0,316.08,64H299.41a1.19,1.19,0,0,0-1.18,1.17v3.13h19Z" style="fill:#fff;opacity:0.6000000000000001"></path><rect x="302.97" y="88.84" width="9.54" height="7.12" rx="1.48" transform="translate(615.48 184.79) rotate(-180)" style="fill:#407BFF"></rect><rect x="302.97" y="88.84" width="9.54" height="7.12" rx="1.48" transform="translate(615.48 184.79) rotate(-180)" style="fill:#fff;opacity:0.30000000000000004"></rect><path d="M285.19,199.35h53.1a1.57,1.57,0,0,0,1.56-1.57V172.31a1.55,1.55,0,0,0-.13-.61,1.3,1.3,0,0,0-.14-.26,1.1,1.1,0,0,0-.2-.23,1.54,1.54,0,0,0-1.1-.46H288a65.58,65.58,0,0,1,.41,10.52c0,.57,0,1.14-.09,1.7-.06,1.05-.15,2.11-.27,3.16A67,67,0,0,1,285.19,199.35Z" style="fill:#407BFF"></path><path d="M285.19,199.35h53.1a1.57,1.57,0,0,0,1.56-1.57V172.31a1.55,1.55,0,0,0-.13-.61,1.3,1.3,0,0,0-.14-.26,1.1,1.1,0,0,0-.2-.23,1.54,1.54,0,0,0-1.1-.46H288a65.58,65.58,0,0,1,.41,10.52c0,.57,0,1.14-.09,1.7-.06,1.05-.15,2.11-.27,3.16A67,67,0,0,1,285.19,199.35Z" style="fill:#fff;opacity:0.6000000000000001"></path><path d="M288,170.75a65.58,65.58,0,0,1,.41,10.52c0,.57,0,1.14-.09,1.7L303,185.85l4.48.88a1.18,1.18,0,0,0,.59,0l4.47-.87,27.33-5.38V172.3a1.69,1.69,0,0,0-.12-.6,1.3,1.3,0,0,0-.14-.26,1.1,1.1,0,0,0-.2-.23,1.54,1.54,0,0,0-1.1-.46Z" style="opacity:0.1"></path><path d="M285.9,160.29h8.63v-3.13a4.89,4.89,0,0,1,4.88-4.88h16.66a4.89,4.89,0,0,1,4.89,4.88v3.13h18.65a1.54,1.54,0,0,1,1.54,1.54v15.4a1.55,1.55,0,0,1-1.24,1.52h-.07l-27.33,5.39L308,185a1.47,1.47,0,0,1-.59,0l-4.48-.88-14.57-2.87a67,67,0,0,0-2.5-21Zm31.35-3.13a1.19,1.19,0,0,0-1.18-1.17H299.41a1.18,1.18,0,0,0-1.17,1.17v3.13h19Z" style="fill:#407BFF"></path><path d="M285.9,160.29h8.63v-3.13a4.89,4.89,0,0,1,4.88-4.88h16.66a4.89,4.89,0,0,1,4.89,4.88v3.13h18.65a1.54,1.54,0,0,1,1.54,1.54v15.4a1.55,1.55,0,0,1-1.24,1.52h-.07l-27.33,5.39L308,185a1.47,1.47,0,0,1-.59,0l-4.48-.88-14.57-2.87a67,67,0,0,0-2.5-21Zm31.35-3.13a1.19,1.19,0,0,0-1.18-1.17H299.41a1.18,1.18,0,0,0-1.17,1.17v3.13h19Z" style="fill:#fff;opacity:0.6000000000000001"></path><rect x="302.97" y="180.81" width="9.54" height="7.12" rx="1.48" transform="translate(615.48 368.75) rotate(180)" style="fill:#407BFF"></rect><rect x="302.97" y="180.81" width="9.54" height="7.12" rx="1.48" transform="translate(615.48 368.75) rotate(180)" style="fill:#fff;opacity:0.30000000000000004"></rect><rect x="169.68" y="164.54" width="92.26" height="41.09" rx="2.24" style="fill:#407BFF"></rect><path d="M227.78,158H203.83a6.86,6.86,0,0,1-6.85-6.85V145a6.86,6.86,0,0,1,6.85-6.85h23.95a6.85,6.85,0,0,1,6.85,6.85v6.12A6.85,6.85,0,0,1,227.78,158Zm-23.95-14.82A1.85,1.85,0,0,0,202,145v6.12a1.85,1.85,0,0,0,1.85,1.85h23.95a1.85,1.85,0,0,0,1.85-1.85V145a1.85,1.85,0,0,0-1.85-1.85Z" style="fill:#407BFF"></path><path d="M259.69,164.54H171.93a2.24,2.24,0,0,0-2.25,2.24v11.75l45.7,9a2,2,0,0,0,.85,0l45.71-9V166.78A2.24,2.24,0,0,0,259.69,164.54Z" style="opacity:0.2"></path><path d="M262,176l-45.79,9a2.48,2.48,0,0,1-.86,0l-45.79-9a2.22,2.22,0,0,1-1.79-2.17V151.73a2.21,2.21,0,0,1,2.21-2.21H261.6a2.21,2.21,0,0,1,2.21,2.21v22.14A2.21,2.21,0,0,1,262,176Z" style="fill:#407BFF"></path><rect x="208.96" y="179.01" width="13.71" height="10.23" rx="2.12" style="fill:#407BFF"></rect><rect x="208.96" y="179.01" width="13.71" height="10.23" rx="2.12" style="opacity:0.4"></rect></g></svg>